<svg width="18" height="19" viewBox="0 0 18 19" fill="none" xmlns="http://www.w3.org/2000/svg">
<path d="M9.21191 0.75708C14.0283 0.75708 17.9307 4.65942 17.9307 9.47583C17.9307 14.2922 14.0283 18.1946 9.21191 18.1946C4.39551 18.1946 0.493164 14.2922 0.493164 9.47583C0.493164 4.65942 4.39551 0.75708 9.21191 0.75708ZM9.21191 16.5071C13.0791 16.5071 16.2432 13.3782 16.2432 9.47583C16.2432 5.60864 13.0791 2.44458 9.21191 2.44458C5.30957 2.44458 2.18066 5.60864 2.18066 9.47583C2.18066 13.3782 5.30957 16.5071 9.21191 16.5071ZM8.08691 5.39771C8.08691 5.18677 8.2627 4.97583 8.50879 4.97583H9.91504C10.126 4.97583 10.3369 5.18677 10.3369 5.39771V9.47583H12.6924C13.0439 9.47583 13.2549 9.93286 12.9736 10.2141L9.49316 13.6946C9.31738 13.8704 9.07129 13.8704 8.89551 13.6946L5.41504 10.2141C5.16895 9.93286 5.34473 9.47583 5.73145 9.47583H8.08691V5.39771Z" fill="white"/>
</svg>
